# xmcd
#
# Track frame offsets: 
#        150
#        10763
#        21234
#        31570
#        41858
#        54334
#        65286
#        77312
#        89715
#        101816
#        113351
#        124151
#        135439
#        147620
#        158947
#
# Disc length: 2256 seconds
#
# Revision: 0
# Processed by: cddbd v1.5.2PL0 Copyright (c) Steve Scherf et al.
# Submitted via: ExactAudioCopy v1.0b1
#
DISCID=bc08ce0f
DTITLE=Various Artist - Country Icons
DYEAR=2012
DGENRE=Country
TTITLE0=Hank Locklin - Please Help Me I'm Falling
TTITLE1=Jim Reeves - He'll Have To Go
TTITLE2=Cowboy Copas - Alabama
TTITLE3=Ferlin Husky - Wings Of A Dove
TTITLE4=Ray Price - One More Time
TTITLE5=Buck Owens - Excuse Me
TTITLE6=Roy Drusky - Another
TTITLE7=Skeeter Davis - I Can't Help You I'm Falling Too
TTITLE8=Don Gibson - Just One Time
TTITLE9=Jack Scott - I Missed You
TTITLE10=Buck Owens - Above And Beyond
TTITLE11=Roy Drusky - Anymore
TTITLE12=Jim Reeves - What In The World's Come Over You
TTITLE13=Ernest Ashworth - Each Moment
TTITLE14=Faron Young - Riverboat
EXTD=
EXTT0=
EXTT1=
EXTT2=
EXTT3=
EXTT4=
EXTT5=
EXTT6=
EXTT7=
EXTT8=
EXTT9=
EXTT10=
EXTT11=
EXTT12=
EXTT13=
EXTT14=
PLAYORDER=
